<svg width="10" height="20" viewBox="0 0 10 20" fill="none" xmlns="http://www.w3.org/2000/svg">
<path d="M9.03641 7.25001H6.83366V5.41668C6.83366 4.47068 6.91066 3.87485 8.26641 3.87485H9.06208C9.56808 3.87485 9.97874 3.46418 9.97874 2.95818V1.80868C9.97874 1.32926 9.61116 0.919514 9.13266 0.887431C8.57899 0.849847 8.02441 0.832431 7.46891 0.833347C4.98199 0.833347 3.16699 2.35226 3.16699 5.14076V7.25001H1.33366C0.827659 7.25001 0.416992 7.66068 0.416992 8.16668V10C0.416992 10.506 0.827659 10.9167 1.33366 10.9167L3.16699 10.9158V18.25C3.16699 18.756 3.57766 19.1667 4.08366 19.1667H5.91699C6.42299 19.1667 6.83366 18.756 6.83366 18.25V10.9139L8.82649 10.913C9.29216 10.913 9.68358 10.5638 9.73674 10.1008L9.94666 8.27118C10.0099 7.7276 9.58458 7.25001 9.03641 7.25001Z" fill="white"/>
</svg>
