<svg width="18" height="18" viewBox="0 0 18 18" fill="none" xmlns="http://www.w3.org/2000/svg">
<path d="M16 0.75H2C0.895 0.75 0 1.57042 0 2.58333V15.4167C0 16.4296 0.895 17.25 2 17.25H16C17.105 17.25 18 16.4296 18 15.4167V2.58333C18 1.57042 17.105 0.75 16 0.75ZM6 13.5833H3.477V7.16667H6V13.5833ZM4.694 5.99058C3.923 5.99058 3.408 5.51942 3.408 4.89058C3.408 4.26175 3.922 3.79058 4.779 3.79058C5.55 3.79058 6.065 4.26175 6.065 4.89058C6.065 5.51942 5.551 5.99058 4.694 5.99058ZM15 13.5833H12.558V10.0762C12.558 9.10633 11.907 8.88267 11.663 8.88267C11.419 8.88267 10.605 9.03208 10.605 10.0762C10.605 10.2256 10.605 13.5833 10.605 13.5833H8.082V7.16667H10.605V8.06225C10.93 7.53975 11.581 7.16667 12.802 7.16667C14.023 7.16667 15 8.06225 15 10.0762V13.5833Z" fill="white"/>
</svg>
