<svg width="20" height="20" viewBox="0 0 20 20" fill="none" xmlns="http://www.w3.org/2000/svg">
<path d="M17.077 3.51734C15.191 1.78759 12.683 0.83426 10.011 0.833344C4.505 0.833344 0.0240001 4.93909 0.0220001 9.98626C0.0210001 11.5996 0.481 13.1744 1.355 14.5623L0 19.1667L5.233 18.0328C6.692 18.7624 8.334 19.1465 10.006 19.1474H10.01C15.515 19.1474 19.996 15.0408 19.999 9.99451C20.001 7.54793 18.963 5.24801 17.077 3.51734ZM14.898 13.2578C14.69 13.7923 13.671 14.3074 13.213 14.345C12.755 14.3835 12.326 14.5348 10.218 13.773C7.681 12.8563 6.079 10.4721 5.955 10.3199C5.83 10.1668 4.936 9.07968 4.936 7.95401C4.936 6.82834 5.581 6.27468 5.81 6.04643C6.039 5.81726 6.309 5.76043 6.476 5.76043C6.642 5.76043 6.809 5.76043 6.954 5.76593C7.132 5.77234 7.329 5.78059 7.516 6.16101C7.738 6.61384 8.223 7.74501 8.285 7.85959C8.347 7.97418 8.389 8.10801 8.306 8.26018C8.223 8.41234 8.181 8.50768 8.057 8.64151C7.932 8.77534 7.795 8.93943 7.683 9.04209C7.558 9.15576 7.428 9.28043 7.573 9.50868C7.719 9.73784 8.219 10.4868 8.961 11.0927C9.915 11.8718 10.718 12.1129 10.968 12.2284C11.218 12.343 11.363 12.3238 11.509 12.1707C11.655 12.0185 12.133 11.5033 12.299 11.2742C12.465 11.045 12.632 11.0835 12.861 11.1596C13.09 11.2357 14.317 11.7893 14.566 11.9039C14.816 12.0185 14.982 12.0753 15.044 12.1707C15.106 12.2651 15.106 12.7234 14.898 13.2578Z" fill="white"/>
</svg>
