<svg width="18" height="18" viewBox="0 0 18 18" fill="none" xmlns="http://www.w3.org/2000/svg">
<path d="M5.08908 0.200012C2.38944 0.200012 0.200195 2.38926 0.200195 5.0889V12.9111C0.200195 15.6108 2.38944 17.8 5.08908 17.8H12.9113C15.6109 17.8 17.8002 15.6108 17.8002 12.9111V5.0889C17.8002 2.38926 15.6109 0.200012 12.9113 0.200012H5.08908ZM14.8669 2.15557C15.4066 2.15557 15.8446 2.59361 15.8446 3.13335C15.8446 3.67308 15.4066 4.11112 14.8669 4.11112C14.3271 4.11112 13.8891 3.67308 13.8891 3.13335C13.8891 2.59361 14.3271 2.15557 14.8669 2.15557ZM9.00019 4.11112C11.6998 4.11112 13.8891 6.30037 13.8891 9.00001C13.8891 11.6997 11.6998 13.8889 9.00019 13.8889C6.30055 13.8889 4.11131 11.6997 4.11131 9.00001C4.11131 6.30037 6.30055 4.11112 9.00019 4.11112ZM9.00019 6.06668C8.22223 6.06668 7.47612 6.37572 6.92601 6.92583C6.37591 7.47594 6.06686 8.22204 6.06686 9.00001C6.06686 9.77798 6.37591 10.5241 6.92601 11.0742C7.47612 11.6243 8.22223 11.9333 9.00019 11.9333C9.77816 11.9333 10.5243 11.6243 11.0744 11.0742C11.6245 10.5241 11.9335 9.77798 11.9335 9.00001C11.9335 8.22204 11.6245 7.47594 11.0744 6.92583C10.5243 6.37572 9.77816 6.06668 9.00019 6.06668Z" fill="white"/>
</svg>
