<svg width="20" height="16" viewBox="0 0 20 16" fill="none" xmlns="http://www.w3.org/2000/svg">
<path d="M19.4863 2.40401C19.2586 1.57626 18.5874 0.923688 17.736 0.702313C16.1916 0.299988 10.0001 0.299988 10.0001 0.299988C10.0001 0.299988 3.80864 0.299988 2.26424 0.702313C1.41284 0.923688 0.741618 1.57626 0.513918 2.40401C0.100098 3.90551 0.100098 7.99999 0.100098 7.99999C0.100098 7.99999 0.100098 12.0945 0.513918 13.596C0.741618 14.4237 1.41284 15.0763 2.26424 15.2977C3.80864 15.7 10.0001 15.7 10.0001 15.7C10.0001 15.7 16.1916 15.7 17.736 15.2977C18.5883 15.0763 19.2586 14.4237 19.4863 13.596C19.9001 12.0945 19.9001 7.99999 19.9001 7.99999C19.9001 7.99999 19.9001 3.90551 19.4863 2.40401ZM8.0201 10.5006V5.49941C8.0201 5.12885 8.43293 4.89785 8.7626 5.08265L13.2176 7.58323C13.5473 7.76803 13.5473 8.23195 13.2176 8.41675L8.7626 10.9173C8.43293 11.1031 8.0201 10.8711 8.0201 10.5006Z" fill="white"/>
</svg>
